<svg width="40" height="40" viewBox="0 0 40 40" fill="none" xmlns="http://www.w3.org/2000/svg">
<path fill-rule="evenodd" clip-rule="evenodd" d="M39.4462 6.61217L33.3878 0.553826C32.6494 -0.184609 31.4522 -0.184609 30.7137 0.553826L20 11.2676L9.28627 0.553826C8.54784 -0.184609 7.3506 -0.184609 6.61217 0.553826L0.553826 6.61217C-0.184609 7.3506 -0.184609 8.54784 0.553826 9.28627L11.2676 20L0.553826 30.7137C-0.184609 31.4522 -0.184609 32.6494 0.553826 33.3878L6.61217 39.4462C7.3506 40.1846 8.54784 40.1846 9.28627 39.4462L20 28.7324L30.7137 39.4462C31.4522 40.1846 32.6494 40.1846 33.3878 39.4462L39.4462 33.3878C40.1846 32.6494 40.1846 31.4522 39.4462 30.7137L28.7324 20L39.4462 9.28627C40.1846 8.54784 40.1846 7.3506 39.4462 6.61217Z" fill="#1F3641"/>
</svg>
